<svg xmlns:dc="http://purl.org/dc/elements/1.1/" xmlns:cc="http://creativecommons.org/ns#" xmlns:rdf="http://www.w3.org/1999/02/22-rdf-syntax-ns#" xmlns:svg="http://www.w3.org/2000/svg" xmlns="http://www.w3.org/2000/svg" xmlns:xlink="http://www.w3.org/1999/xlink" id="svg173896" viewBox="0 0 1024 768" version="1.1">

  <defs id="defs173900"></defs>
  <linearGradient spreadMethod="pad" y2="30%" x2="-10%" y1="120%" x1="30%" id="3d_gradient2-logo-56dbfe8a-0ef3-4b38-9d94-bc3c64d5479f" fill="#FFFFFF">
    <stop id="stop173877" stop-opacity="1" stop-color="#ffffff" offset="0%" fill="#FFFFFF"></stop>
    <stop id="stop173879" stop-opacity="1" stop-color="#000000" offset="100%" fill="#FFFFFF"></stop>
  </linearGradient>
  <linearGradient gradientTransform="rotate(-30)" spreadMethod="pad" y2="30%" x2="-10%" y1="120%" x1="30%" id="3d_gradient3-logo-56dbfe8a-0ef3-4b38-9d94-bc3c64d5479f" fill="#FFFFFF">
    <stop id="stop173882" stop-opacity="1" stop-color="#ffffff" offset="0%" fill="#FFFFFF"></stop>
    <stop id="stop173884" stop-opacity="1" stop-color="#cccccc" offset="50%" fill="#FFFFFF"></stop>
    <stop id="stop173886" stop-opacity="1" stop-color="#000000" offset="100%" fill="#FFFFFF"></stop>
  </linearGradient>
  <g id="logo-group" fill="#FFFFFF">
    <image xlink:href="" id="container" style="display: none;" x="272" y="144" width="480" height="480" transform="translate(0 0)" fill="#FFFFFF"></image>
    <g id="logo-center" transform="translate(0 0)" fill="#FFFFFF">
      <image xlink:href="" id="icon_container" style="display: none;" x="0" y="0" fill="#FFFFFF"></image>
      <g id="slogan" style="font-style:oblique;font-weight:100;font-size:32px;line-height:1;font-family:Overpass;font-variant-ligatures:none;text-align:center;text-anchor:middle" transform="translate(0 0)" fill="#FFFFFF"></g>
      <g id="title" style="font-style:normal;font-weight:700;font-size:72px;line-height:1;font-family:'Brandmark1 Bold Color';font-variant-ligatures:normal;text-align:center;text-anchor:middle" transform="translate(0 0)" fill="#FFFFFF">
        <g id="path173905" aria-label="C" fill="#FFFFFF" transform="translate(0 330.976) translate(262.79675 -4.216000000000001) scale(2) translate(-389.41044 54.216)"> <path class="c1" d="M91.27637,126.36865c-3.40576-1.44043-6.46631-3.50684-9.09424-6.13477 c-2.62842-2.62793-4.6875-5.68848-6.13477-9.09473c-1.49072-3.52783-2.25391-7.27979-2.25391-11.13916 s0.75586-7.61084,2.25391-11.13916c1.43994-3.40625,3.50635-6.46631,6.13477-9.09473 c2.62793-2.62793,5.68848-4.6875,9.09424-6.13477c3.52881-1.49756,7.27979-2.25391,11.13916-2.25391 c9.5625,0,18.45508,4.74561,23.79102,12.70215l-9.38965,6.29346c-3.22559-4.81738-8.61133-7.69043-14.40137-7.69043 c-4.62207,0-8.97168,1.80029-12.24805,5.06934S85.09814,95.37744,85.09814,100c0,4.62305,1.80029,8.97217,5.06934,12.24854 c3.26855,3.26953,7.61816,5.06836,12.24805,5.06836c5.76074,0,11.13281-2.85742,14.36523-7.63867l9.36816,6.32813 c-5.33594,7.90039-14.20703,12.61621-23.7334,12.61621C98.55615,128.62256,94.80518,127.8667,91.27637,126.36865z" transform="translate(315.61699 -125.59342)" stroke-width="0px" stroke-linejoin="miter" stroke-miterlimit="2" fill="#FFFFFF" stroke="#FFFFFF"></path> </g>
        <g id="path173907" aria-label="O" fill="#FFFFFF" transform="translate(0 330.976) translate(366.70849 -3.783999999999999) scale(2) translate(-441.36631 54)"> <path class="c1" d="M88.93994,126.17456c-3.38477-1.43311-6.42285-3.47803-9.02979-6.08447 c-2.60645-2.60693-4.65137-5.64551-6.08447-9.02979c-1.4834-3.50684-2.23242-7.22949-2.23242-11.06006 s0.74902-7.55371,2.23242-11.06006c1.43311-3.38428,3.47803-6.42334,6.08447-9.02979 c2.60693-2.60645,5.64502-4.65137,9.02979-6.08447c3.50684-1.4834,7.22949-2.23242,11.05957-2.23242 c3.83105,0,7.55371,0.74902,11.06055,2.23242c3.38477,1.43311,6.42285,3.47803,9.0293,6.08447 c2.60742,2.60645,4.65234,5.64551,6.08496,9.02979c1.4834,3.50635,2.23242,7.22949,2.23242,11.06006 s-0.74902,7.55322-2.23242,11.06006c-1.43262,3.38428-3.47754,6.42285-6.08496,9.02979 c-2.60645,2.60645-5.64453,4.65137-9.0293,6.08447c-3.50684,1.4834-7.22949,2.23193-11.06055,2.23193 C96.16943,128.40649,92.44678,127.65796,88.93994,126.17456z M87.90283,87.9104c-3.2334,3.23291-5.01172,7.52441-5.01172,12.09717 c0,4.57227,1.77832,8.86377,5.01172,12.09668c3.2334,3.2334,7.52441,5.01172,12.09668,5.01172 c4.57324,0,8.86426-1.77832,12.09766-5.01172c3.23242-3.23291,5.01172-7.52441,5.01172-12.09668 c0-4.57275-1.7793-8.86426-5.01172-12.09717c-3.2334-3.23291-7.53223-5.01172-12.09766-5.01172 C95.43506,82.89868,91.13623,84.67749,87.90283,87.9104z" transform="translate(369.77305 -125.5935)" stroke-width="0px" stroke-linejoin="miter" stroke-miterlimit="2" fill="#FFFFFF" stroke="#FFFFFF"></path> </g>
        <g id="path173909" aria-label="R" fill="#FFFFFF" transform="translate(0 330.976) translate(490.43598999999995 -3.064) scale(2) translate(-503.23006 53.64)"> <path class="c1" d="M121.90405,128.08252h-13.65918l-13.37109-19.27637V97.83984h2.16016 c3.40527,0,5.9541-0.74902,7.56738-2.23242c1.38281-1.27441,2.08105-3.11084,2.08105-5.47266 c0-2.4624-0.71973-4.33447-2.13867-5.55859c-1.4541-1.26025-3.75879-1.92969-6.64648-1.92969h-8.49609v45.43604H78.09595V71.91748 h20.66553c3.16113,0,6.0127,0.45361,8.48926,1.34619c2.44141,0.88574,4.5293,2.21094,6.20703,3.93164 c3.10352,3.18994,4.74512,7.71191,4.74512,13.0835c0,4.81738-1.33203,8.79932-3.95996,11.83789 c-1.8291,2.10986-4.24121,3.72266-7.2002,4.81006L121.90405,128.08252z" transform="translate(425.13411 -125.55748)" stroke-width="0px" stroke-linejoin="miter" stroke-miterlimit="2" fill="#FFFFFF" stroke="#FFFFFF"></path> </g>
        <g id="path173911" aria-label="E" fill="#FFFFFF" transform="translate(0 330.976) translate(582.96725 -3.064) scale(2) translate(-549.49569 53.64)"> <path class="c1" d="M81.8186,128.08252h36.36279v-10.51367H81.8186V128.08252z M81.8186,105.47217h36.36279v-10.729H81.8186 V105.47217z M81.8186,71.91748v10.729h36.36279v-10.729H81.8186z" transform="translate(467.67709 -125.55748)" stroke-width="0px" stroke-linejoin="miter" stroke-miterlimit="2" fill="#FFFFFF" stroke="#FFFFFF"></path> </g>
        <g id="path173913" aria-label="X" fill="#FFFFFF" transform="translate(0 330.976) translate(655.93925 -3.064) scale(2) translate(-585.98169 53.64)"> <polygon class="c1" points="112.69824,71.91748 100.02539,90.66797 87.28711,71.91748 73.95898,71.91748 92.78125,99.99268 73.70703,128.08252 87.06445,128.08252 99.9248,109.32471 99.9408,109.34808 125.66718,71.91748 " transform="translate(512.27466 -125.55748)" stroke-width="0px" stroke-linejoin="miter" stroke-miterlimit="2" fill="#FFFFFF" stroke="#FFFFFF"></polygon> <polygon class="c3" points="116.85968,114.24286 103.29663,114.24286 112.78516,128.08252 126.29297,128.08252 " transform="translate(512.27466 -125.55748)" stroke-width="0px" stroke-linejoin="miter" stroke-miterlimit="2" fill="#86B3E2" stroke="#86B3E2"></polygon> </g>
           </g>
      <image xlink:href="" id="icon" style="display: none;" x="0" y="0" fill="#FFFFFF"></image>
    </g>
  </g>
</svg>
